<mxfile host="app.diagrams.net" modified="2023-02-21T06:48:12.724Z" agent="5.0 (Windows NT 10.0; Win64; x64) AppleWebKit/537.36 (KHTML, like Gecko) Chrome/110.0.0.0 Safari/537.36" etag="w1oTc8NJQTo8vSV18viq" version="20.8.20" type="github">
  <diagram id="Z87XCZslrCXwQrkr19RX" name="Page-1">
    <mxGraphModel dx="2261" dy="707" grid="1" gridSize="10" guides="1" tooltips="1" connect="1" arrows="1" fold="1" page="1" pageScale="1" pageWidth="827" pageHeight="1169" math="0" shadow="0">
      <root>
        <mxCell id="0" />
        <mxCell id="1" parent="0" />
        <mxCell id="S6yvC7qdEsfKQvKiLP5z-28" value="" style="rounded=0;whiteSpace=wrap;html=1;" parent="1" vertex="1">
          <mxGeometry x="-740" y="60" width="820" height="480" as="geometry" />
        </mxCell>
        <mxCell id="S6yvC7qdEsfKQvKiLP5z-32" value="" style="endArrow=none;dashed=1;html=1;dashPattern=1 3;strokeWidth=2;rounded=0;entryX=0.5;entryY=1;entryDx=0;entryDy=0;startArrow=none;" parent="1" source="S6yvC7qdEsfKQvKiLP5z-33" target="S6yvC7qdEsfKQvKiLP5z-30" edge="1">
          <mxGeometry width="50" height="50" relative="1" as="geometry">
            <mxPoint x="-522.25" y="650" as="sourcePoint" />
            <mxPoint x="-522.25" y="280" as="targetPoint" />
          </mxGeometry>
        </mxCell>
        <mxCell id="S6yvC7qdEsfKQvKiLP5z-27" value="" style="rounded=0;whiteSpace=wrap;html=1;" parent="1" vertex="1">
          <mxGeometry x="-730" y="70" width="130" height="40" as="geometry" />
        </mxCell>
        <mxCell id="S6yvC7qdEsfKQvKiLP5z-1" value="room.js" style="rounded=0;whiteSpace=wrap;html=1;" parent="1" vertex="1">
          <mxGeometry x="-700" y="200" width="90" height="30" as="geometry" />
        </mxCell>
        <mxCell id="S6yvC7qdEsfKQvKiLP5z-3" value="RoomModule/&lt;br&gt;krpanoroom.js" style="rounded=0;whiteSpace=wrap;html=1;" parent="1" vertex="1">
          <mxGeometry x="-88.25" y="200" width="90" height="30" as="geometry" />
        </mxCell>
        <mxCell id="S6yvC7qdEsfKQvKiLP5z-5" value="" style="endArrow=none;dashed=1;html=1;dashPattern=1 3;strokeWidth=2;rounded=0;entryX=0.411;entryY=1.067;entryDx=0;entryDy=0;entryPerimeter=0;startArrow=none;" parent="1" target="S6yvC7qdEsfKQvKiLP5z-1" edge="1">
          <mxGeometry width="50" height="50" relative="1" as="geometry">
            <mxPoint x="-663.5229314790217" y="265" as="sourcePoint" />
            <mxPoint x="-303" y="480" as="targetPoint" />
          </mxGeometry>
        </mxCell>
        <mxCell id="S6yvC7qdEsfKQvKiLP5z-6" value="" style="endArrow=none;dashed=1;html=1;dashPattern=1 3;strokeWidth=2;rounded=0;entryX=0.5;entryY=1;entryDx=0;entryDy=0;startArrow=none;" parent="1" source="QYz8oIN1GEiqAUlNkPk4-4" target="S6yvC7qdEsfKQvKiLP5z-3" edge="1">
          <mxGeometry width="50" height="50" relative="1" as="geometry">
            <mxPoint x="-187.75" y="690" as="sourcePoint" />
            <mxPoint x="-41.5" y="280" as="targetPoint" />
          </mxGeometry>
        </mxCell>
        <mxCell id="S6yvC7qdEsfKQvKiLP5z-9" value="" style="endArrow=none;html=1;rounded=0;" parent="1" edge="1">
          <mxGeometry width="50" height="50" relative="1" as="geometry">
            <mxPoint x="-697" y="180" as="sourcePoint" />
            <mxPoint x="-287" y="180" as="targetPoint" />
          </mxGeometry>
        </mxCell>
        <mxCell id="S6yvC7qdEsfKQvKiLP5z-10" value="" style="endArrow=none;html=1;rounded=0;" parent="1" edge="1">
          <mxGeometry width="50" height="50" relative="1" as="geometry">
            <mxPoint x="-220" y="180" as="sourcePoint" />
            <mxPoint y="180" as="targetPoint" />
          </mxGeometry>
        </mxCell>
        <mxCell id="S6yvC7qdEsfKQvKiLP5z-11" value="Client" style="text;strokeColor=none;align=center;fillColor=none;html=1;verticalAlign=middle;whiteSpace=wrap;rounded=0;" parent="1" vertex="1">
          <mxGeometry x="-697" y="130" width="60" height="30" as="geometry" />
        </mxCell>
        <mxCell id="S6yvC7qdEsfKQvKiLP5z-12" value="Server" style="text;strokeColor=none;align=center;fillColor=none;html=1;verticalAlign=middle;whiteSpace=wrap;rounded=0;" parent="1" vertex="1">
          <mxGeometry x="-239.5" y="130" width="60" height="30" as="geometry" />
        </mxCell>
        <mxCell id="S6yvC7qdEsfKQvKiLP5z-14" value="" style="endArrow=none;dashed=1;html=1;dashPattern=1 3;strokeWidth=2;rounded=0;entryX=1;entryY=0.5;entryDx=0;entryDy=0;" parent="1" edge="1">
          <mxGeometry width="50" height="50" relative="1" as="geometry">
            <mxPoint x="-664" y="396.5" as="sourcePoint" />
            <mxPoint x="-663" y="261.5" as="targetPoint" />
          </mxGeometry>
        </mxCell>
        <mxCell id="S6yvC7qdEsfKQvKiLP5z-26" value="Join-room :&amp;nbsp;&lt;br&gt;krpanoroom module" style="text;strokeColor=none;align=center;fillColor=none;html=1;verticalAlign=middle;whiteSpace=wrap;rounded=0;" parent="1" vertex="1">
          <mxGeometry x="-720" y="75" width="110" height="30" as="geometry" />
        </mxCell>
        <mxCell id="S6yvC7qdEsfKQvKiLP5z-30" value="RoomModule/&lt;br&gt;KrpanoroomClient" style="rounded=0;whiteSpace=wrap;html=1;" parent="1" vertex="1">
          <mxGeometry x="-560.01" y="200" width="110.01" height="30" as="geometry" />
        </mxCell>
        <mxCell id="S6yvC7qdEsfKQvKiLP5z-33" value="" style="rounded=0;whiteSpace=wrap;html=1;rotation=90;" parent="1" vertex="1">
          <mxGeometry x="-619.06" y="386.95" width="208.11" height="20" as="geometry" />
        </mxCell>
        <mxCell id="S6yvC7qdEsfKQvKiLP5z-35" value="" style="endArrow=classic;html=1;rounded=0;entryX=0;entryY=1;entryDx=0;entryDy=0;exitX=1;exitY=0;exitDx=0;exitDy=0;" parent="1" source="VE9qQbwJ7asa3l0-s3IV-35" target="S6yvC7qdEsfKQvKiLP5z-33" edge="1">
          <mxGeometry width="50" height="50" relative="1" as="geometry">
            <mxPoint x="-663.5" y="291.5" as="sourcePoint" />
            <mxPoint x="-540" y="292" as="targetPoint" />
          </mxGeometry>
        </mxCell>
        <mxCell id="S6yvC7qdEsfKQvKiLP5z-36" value="1. room.emit(&#39;join-room&#39;)" style="text;strokeColor=none;align=center;fillColor=none;html=1;verticalAlign=middle;whiteSpace=wrap;rounded=0;" parent="1" vertex="1">
          <mxGeometry x="-658.25" y="260" width="146.5" height="30" as="geometry" />
        </mxCell>
        <mxCell id="QYz8oIN1GEiqAUlNkPk4-4" value="" style="rounded=0;whiteSpace=wrap;html=1;rotation=90;spacing=4;" parent="1" vertex="1">
          <mxGeometry x="-64.01" y="308" width="45" height="20" as="geometry" />
        </mxCell>
        <mxCell id="QYz8oIN1GEiqAUlNkPk4-14" value="" style="endArrow=none;dashed=1;html=1;dashPattern=1 3;strokeWidth=2;rounded=0;entryX=1;entryY=0.5;entryDx=0;entryDy=0;exitX=0;exitY=0.5;exitDx=0;exitDy=0;startArrow=none;" parent="1" source="UQ8lVdm8DVR-YvWxI9tz-7" target="QYz8oIN1GEiqAUlNkPk4-4" edge="1">
          <mxGeometry width="50" height="50" relative="1" as="geometry">
            <mxPoint x="-68" y="690" as="sourcePoint" />
            <mxPoint x="-68" y="280" as="targetPoint" />
          </mxGeometry>
        </mxCell>
        <mxCell id="VE9qQbwJ7asa3l0-s3IV-26" value="" style="swimlane;startSize=0;" parent="1" vertex="1">
          <mxGeometry x="-600" y="400" width="640" height="107.07" as="geometry" />
        </mxCell>
        <mxCell id="VE9qQbwJ7asa3l0-s3IV-27" value="Loop All Channels" style="text;strokeColor=none;align=center;fillColor=none;html=1;verticalAlign=middle;whiteSpace=wrap;rounded=0;" parent="VE9qQbwJ7asa3l0-s3IV-26" vertex="1">
          <mxGeometry x="6.5" y="6" width="60" height="30" as="geometry" />
        </mxCell>
        <mxCell id="UQ8lVdm8DVR-YvWxI9tz-7" value="" style="rounded=0;whiteSpace=wrap;html=1;rotation=90;spacing=4;" parent="VE9qQbwJ7asa3l0-s3IV-26" vertex="1">
          <mxGeometry x="535.99" y="60.00000000000001" width="45" height="20" as="geometry" />
        </mxCell>
        <mxCell id="VE9qQbwJ7asa3l0-s3IV-35" value="" style="rounded=0;whiteSpace=wrap;html=1;rotation=90;" parent="1" vertex="1">
          <mxGeometry x="-691" y="256" width="54" height="20" as="geometry" />
        </mxCell>
        <mxCell id="UQ8lVdm8DVR-YvWxI9tz-3" value="" style="endArrow=classic;html=1;rounded=0;exitX=0;exitY=0;exitDx=0;exitDy=0;entryX=0;entryY=1;entryDx=0;entryDy=0;" parent="1" source="S6yvC7qdEsfKQvKiLP5z-33" target="QYz8oIN1GEiqAUlNkPk4-4" edge="1">
          <mxGeometry width="50" height="50" relative="1" as="geometry">
            <mxPoint x="-360" y="460" as="sourcePoint" />
            <mxPoint x="-350" y="295.5" as="targetPoint" />
          </mxGeometry>
        </mxCell>
        <mxCell id="UQ8lVdm8DVR-YvWxI9tz-4" value="2. &lt;br&gt;this.namespace.emit(&quot;regist&quot;, {userId})" style="text;strokeColor=none;align=center;fillColor=none;html=1;verticalAlign=middle;whiteSpace=wrap;rounded=0;" parent="1" vertex="1">
          <mxGeometry x="-370" y="260" width="227.37" height="30" as="geometry" />
        </mxCell>
        <mxCell id="UQ8lVdm8DVR-YvWxI9tz-5" value="" style="endArrow=classic;html=1;rounded=0;exitX=1;exitY=1;exitDx=0;exitDy=0;" parent="1" source="QYz8oIN1GEiqAUlNkPk4-4" edge="1">
          <mxGeometry width="50" height="50" relative="1" as="geometry">
            <mxPoint x="-350" y="330" as="sourcePoint" />
            <mxPoint x="-500" y="340" as="targetPoint" />
          </mxGeometry>
        </mxCell>
        <mxCell id="UQ8lVdm8DVR-YvWxI9tz-6" value="3.&lt;br&gt;callback({success, channels, sceneData})" style="text;strokeColor=none;align=center;fillColor=none;html=1;verticalAlign=middle;whiteSpace=wrap;rounded=0;" parent="1" vertex="1">
          <mxGeometry x="-370" y="308" width="227.37" height="30" as="geometry" />
        </mxCell>
        <mxCell id="UQ8lVdm8DVR-YvWxI9tz-8" value="" style="endArrow=none;dashed=1;html=1;dashPattern=1 3;strokeWidth=2;rounded=0;entryX=1;entryY=0.5;entryDx=0;entryDy=0;exitX=0;exitY=0.5;exitDx=0;exitDy=0;startArrow=none;" parent="1" target="UQ8lVdm8DVR-YvWxI9tz-7" edge="1">
          <mxGeometry width="50" height="50" relative="1" as="geometry">
            <mxPoint x="-41.50500000000011" y="530.0049999999999" as="sourcePoint" />
            <mxPoint x="-42" y="341" as="targetPoint" />
          </mxGeometry>
        </mxCell>
        <mxCell id="UQ8lVdm8DVR-YvWxI9tz-9" value="" style="endArrow=classic;html=1;rounded=0;entryX=0;entryY=1;entryDx=0;entryDy=0;exitX=0.294;exitY=-0.05;exitDx=0;exitDy=0;exitPerimeter=0;" parent="1" target="UQ8lVdm8DVR-YvWxI9tz-7" edge="1">
          <mxGeometry width="50" height="50" relative="1" as="geometry">
            <mxPoint x="-503.9950000000001" y="448.20074" as="sourcePoint" />
            <mxPoint x="-299.99" y="410" as="targetPoint" />
          </mxGeometry>
        </mxCell>
        <mxCell id="UQ8lVdm8DVR-YvWxI9tz-10" value="5.&lt;br&gt;this.namespace.emit(&#39;subscribe&#39;, {channelName}&amp;nbsp;" style="text;strokeColor=none;align=center;fillColor=none;html=1;verticalAlign=middle;whiteSpace=wrap;rounded=0;" parent="1" vertex="1">
          <mxGeometry x="-401.31" y="410" width="290" height="30" as="geometry" />
        </mxCell>
        <mxCell id="UQ8lVdm8DVR-YvWxI9tz-11" value="" style="endArrow=classic;html=1;rounded=0;entryX=0.471;entryY=0;entryDx=0;entryDy=0;entryPerimeter=0;" parent="1" target="S6yvC7qdEsfKQvKiLP5z-33" edge="1">
          <mxGeometry width="50" height="50" relative="1" as="geometry">
            <mxPoint x="-500" y="350" as="sourcePoint" />
            <mxPoint x="-300" y="370" as="targetPoint" />
            <Array as="points">
              <mxPoint x="-400" y="350" />
              <mxPoint x="-400" y="391" />
            </Array>
          </mxGeometry>
        </mxCell>
        <mxCell id="UQ8lVdm8DVR-YvWxI9tz-12" value="4.&amp;nbsp;&lt;br&gt;updateScene(sceneData)" style="text;strokeColor=none;align=center;fillColor=none;html=1;verticalAlign=middle;whiteSpace=wrap;rounded=0;" parent="1" vertex="1">
          <mxGeometry x="-386.96" y="360" width="261.31" height="30" as="geometry" />
        </mxCell>
        <mxCell id="UQ8lVdm8DVR-YvWxI9tz-13" value="" style="endArrow=classic;html=1;rounded=0;exitX=1;exitY=1;exitDx=0;exitDy=0;" parent="1" source="UQ8lVdm8DVR-YvWxI9tz-7" edge="1">
          <mxGeometry width="50" height="50" relative="1" as="geometry">
            <mxPoint x="-350" y="420" as="sourcePoint" />
            <mxPoint x="-500" y="493" as="targetPoint" />
          </mxGeometry>
        </mxCell>
        <mxCell id="UQ8lVdm8DVR-YvWxI9tz-14" value="6.&amp;nbsp;&lt;br&gt;callback({channelName})" style="text;strokeColor=none;align=center;fillColor=none;html=1;verticalAlign=middle;whiteSpace=wrap;rounded=0;" parent="1" vertex="1">
          <mxGeometry x="-401.31" y="460" width="290" height="30" as="geometry" />
        </mxCell>
      </root>
    </mxGraphModel>
  </diagram>
</mxfile>
